<?xml version="1.0" encoding="UTF-8"?>
<!DOCTYPE svg PUBLIC "-//W3C//DTD SVG 1.1//EN" "http://www.w3.org/Graphics/SVG/1.1/DTD/svg11.dtd">
<!-- Creator: CorelDRAW X8 -->
<svg xmlns="http://www.w3.org/2000/svg" xml:space="preserve" width="71.83mm" height="71.42mm" version="1.1" style="shape-rendering:geometricPrecision; text-rendering:geometricPrecision; image-rendering:optimizeQuality; fill-rule:evenodd; clip-rule:evenodd"
viewBox="0 0 7183 7142"
 xmlns:xlink="http://www.w3.org/1999/xlink">
 <defs>
  <style type="text/css">
   <![CDATA[
    .fil0 {fill:white;fill-rule:nonzero}
   ]]>
  </style>
 </defs>
 <g id="Capa_x0020_2">
  <metadata id="CorelCorpID_0Corel-Layer"/>
  <g id="_1054460842016">
   <path class="fil0" d="M6557 3460c11,-15 23,-27 38,-35 15,-8 32,-13 50,-13 35,0 62,12 82,35 19,23 29,58 29,106l0 196 -89 0 0 -197c0,-25 -4,-44 -13,-54 -8,-11 -20,-16 -37,-16 -13,0 -25,2 -35,6 -10,5 -18,11 -25,19l0 242 -89 0 0 -477 89 0 0 188z"/>
   <polygon id="1" class="fil0" points="6908,3383 6877,3470 6833,3470 6833,3304 6908,3304 "/>
   <path class="fil0" d="M3538 679c-3,-7 -6,-15 -8,-23 -3,-9 -4,-17 -5,-26 -10,16 -22,29 -37,40 -15,11 -33,16 -53,16 -35,0 -62,-9 -80,-27 -19,-18 -29,-42 -29,-73 0,-32 13,-57 38,-75 25,-18 61,-27 109,-27l50 0 0 -26c0,-16 -4,-28 -12,-37 -9,-9 -21,-13 -38,-13 -14,0 -25,3 -33,10 -8,7 -12,17 -12,29l-86 0 0 -2c-2,-27 11,-52 36,-72 26,-20 60,-30 101,-30 40,0 72,10 97,30 24,20 36,48 36,86l0 136c0,16 1,30 4,44 2,13 6,27 11,40l-89 0zm-81 -59c15,0 29,-4 41,-12 12,-8 21,-16 25,-27l0 -46 -50 0c-19,0 -33,4 -43,14 -10,9 -14,21 -14,34 0,11 3,20 10,27 8,7 18,10 31,10z"/>
   <polygon id="1" class="fil0" points="3764,314 3732,401 3688,401 3688,235 3764,235 "/>
   <path class="fil0" d="M6962 5739c0,49 -11,88 -34,118 -22,30 -54,44 -94,45 -18,-1 -33,-4 -46,-10 -14,-6 -25,-16 -35,-28l0 158 -89 0 0 -457 80 0 6 39c9,-15 21,-26 35,-34 14,-8 30,-12 48,-12 41,0 73,17 95,48 23,32 34,74 34,127l0 6zm-89 -6c0,-31 -5,-57 -16,-76 -10,-19 -26,-29 -47,-29 -14,0 -25,3 -35,8 -9,6 -17,13 -22,24l0 144c5,10 13,17 22,22 10,5 22,7 35,7 22,0 38,-8 48,-25 10,-17 15,-40 15,-69l0 -6z"/>
   <polygon id="1" class="fil0" points="7098,5529 7067,5617 7023,5617 7023,5450 7098,5450 "/>
   <path class="fil0" d="M3627 6980c0,49 -11,88 -33,118 -22,29 -54,44 -96,44 -19,0 -36,-4 -50,-12 -15,-8 -27,-20 -37,-36l-7 42 -75 0 0 -477 88 0 0 181c10,-13 21,-23 35,-30 13,-7 28,-11 46,-11 42,0 74,16 96,47 22,32 33,74 33,127l0 7zm-89 -7c0,-32 -5,-58 -14,-76 -10,-19 -26,-29 -49,-29 -14,0 -25,3 -35,9 -10,6 -17,14 -23,25l0 140c6,10 13,17 23,23 10,5 22,8 36,8 23,0 39,-8 48,-25 9,-16 14,-39 14,-68l0 -7z"/>
   <polygon id="1" class="fil0" points="3762,6770 3731,6857 3687,6857 3687,6691 3762,6691 "/>
   <polygon class="fil0" points="89,3742 0,3742 0,3266 89,3266 "/>
   <polygon id="1" class="fil0" points="252,3377 221,3464 177,3464 177,3297 252,3297 "/>
   <path class="fil0" d="M7047 1218c0,49 -11,88 -34,118 -22,30 -54,44 -94,45 -18,-1 -33,-4 -46,-10 -14,-7 -25,-16 -35,-28l0 158 -89 0 0 -457 81 0 5 39c10,-15 21,-26 35,-34 14,-8 30,-12 48,-12 41,0 73,16 95,48 23,32 34,74 34,127l0 6zm-89 -6c0,-32 -5,-57 -15,-76 -11,-20 -27,-29 -48,-29 -13,0 -25,3 -34,8 -10,6 -17,13 -23,24l0 144c6,10 13,17 23,22 9,5 21,7 34,7 22,0 38,-8 48,-25 10,-17 15,-40 15,-69l0 -6z"/>
   <polygon id="1" class="fil0" points="7183,1008 7152,1095 7108,1095 7108,929 7183,929 "/>
   <path class="fil0" d="M6012 289c0,49 -11,88 -34,118 -22,29 -54,44 -94,44 -18,0 -33,-3 -46,-10 -14,-6 -25,-15 -35,-28l0 159 -89 0 0 -458 80 0 6 39c9,-14 21,-25 35,-33 14,-8 30,-12 48,-12 41,0 73,16 95,48 23,32 34,74 34,126l0 7zm-89 -7c0,-31 -5,-56 -15,-76 -11,-19 -27,-29 -48,-29 -14,0 -25,3 -35,9 -9,5 -17,13 -22,23l0 145c5,9 13,16 22,21 10,5 22,8 35,8 22,0 38,-9 48,-26 10,-17 15,-39 15,-68l0 -7z"/>
   <polygon id="1" class="fil0" points="6148,79 6117,166 6073,166 6073,0 6148,0 "/>
   <path class="fil0" d="M1475 289c0,49 -11,88 -34,118 -23,29 -54,44 -95,44 -17,0 -32,-3 -46,-10 -13,-6 -25,-15 -34,-28l0 159 -89 0 0 -458 80 0 5 39c10,-14 22,-25 36,-33 13,-8 29,-12 48,-12 41,0 72,16 95,48 23,32 34,74 34,126l0 7zm-89 -7c0,-31 -5,-56 -16,-76 -10,-19 -26,-29 -47,-29 -14,0 -25,3 -35,9 -9,5 -17,13 -22,23l0 145c5,9 13,16 22,21 10,5 21,8 35,8 22,0 37,-9 48,-26 10,-17 15,-39 15,-68l0 -7z"/>
   <polygon id="1" class="fil0" points="1611,79 1579,166 1535,166 1535,0 1611,0 "/>
   <path class="fil0" d="M5586 1482l0 -452 -4086 0 0 467 -467 0 0 4014 467 0 0 466 4086 0 0 -466 467 0 0 -4014 -467 0 0 -15zm30 -467l0 452 467 0 0 4073 -467 0 0 467c-1382,0 -2764,0 -4146,0l0 -467 -466 0 0 -4073 466 0 0 -467 4146 0 0 15z"/>
   <polygon class="fil0" points="6421,5940 6421,5577 6451,5577 6451,5940 "/>
   <polygon class="fil0" points="6436,5992 6465,5919 6436,5937 6406,5919 "/>
   <polygon class="fil0" points="6479,5925 6436,6031 6376,5885 6436,5919 6496,5885 "/>
   <polygon class="fil0" points="6436,5526 6465,5598 6436,5581 6406,5598 "/>
   <polygon class="fil0" points="6449,5520 6496,5633 6436,5598 6376,5633 6436,5486 "/>
   <polygon class="fil0" points="6421,1430 6421,1067 6451,1067 6451,1430 "/>
   <polygon class="fil0" points="6436,1482 6465,1409 6436,1426 6406,1409 "/>
   <polygon class="fil0" points="6479,1415 6436,1521 6376,1374 6436,1409 6496,1374 "/>
   <polygon class="fil0" points="6436,1015 6465,1088 6436,1071 6406,1088 "/>
   <polygon class="fil0" points="6449,1010 6496,1123 6436,1088 6376,1123 6436,976 "/>
   <polygon class="fil0" points="6016,740 5653,740 5653,710 6016,710 "/>
   <polygon class="fil0" points="6068,725 5995,695 6012,725 5995,755 "/>
   <polygon class="fil0" points="6001,682 6107,725 5960,785 5995,725 5960,665 "/>
   <polygon class="fil0" points="5601,725 5674,695 5657,725 5674,755 "/>
   <polygon class="fil0" points="5596,711 5709,665 5674,725 5709,785 5562,725 "/>
   <polygon class="fil0" points="1433,740 1070,740 1070,710 1433,710 "/>
   <polygon class="fil0" points="1485,725 1412,695 1430,725 1412,755 "/>
   <polygon class="fil0" points="1418,682 1524,725 1378,785 1412,725 1378,665 "/>
   <polygon class="fil0" points="1019,725 1091,695 1074,725 1091,755 "/>
   <polygon class="fil0" points="1013,711 1126,665 1091,725 1126,785 979,725 "/>
   <polygon class="fil0" points="5616,5482 5616,5540 5557,5540 5557,5511 5586,5511 5586,5482 "/>
   <path class="fil0" d="M5380 5540l0 -29 88 0 0 29 -88 0zm-3806 0l32 0 0 -29 -32 0 0 29zm119 0l0 -29 88 0 0 29 -88 0zm176 0l0 -29 88 0 0 29 -88 0zm176 0l0 -29 87 0 0 29 -87 0zm175 0l0 -29 88 0 0 29 -88 0zm176 0l0 -29 87 0 0 29 -87 0zm175 0l0 -29 88 0 0 29 -88 0zm176 0l0 -29 88 0 0 29 -88 0zm175 0l0 -29 88 0 0 29 -88 0zm176 0l0 -29 88 0 0 29 -88 0zm175 0l0 -29 88 0 0 29 -88 0zm176 0l0 -29 88 0 0 29 -88 0zm176 0l0 -29 87 0 0 29 -87 0zm175 0l0 -29 88 0 0 29 -88 0zm176 0l0 -29 87 0 0 29 -87 0zm175 0l0 -29 88 0 0 29 -88 0zm176 0l0 -29 88 0 0 29 -88 0zm175 0l0 -29 88 0 0 29 -88 0zm176 0l0 -29 88 0 0 29 -88 0zm175 0l0 -29 88 0 0 29 -88 0zm176 0l0 -29 88 0 0 29 -88 0zm176 0l0 -29 87 0 0 29 -87 0z"/>
   <polygon class="fil0" points="1529,5540 1470,5540 1470,5482 1500,5482 1500,5511 1529,5511 "/>
   <path class="fil0" d="M1470 5306l30 0 0 88 -30 0 0 -88zm0 -3687l30 0 0 88 -30 0 0 -88zm0 176l30 0 0 88 -30 0 0 -88zm0 175l30 0 0 88 -30 0 0 -88zm0 176l30 0 0 88 -30 0 0 -88zm0 176l30 0 0 87 -30 0 0 -87zm0 175l30 0 0 88 -30 0 0 -88zm0 176l30 0 0 87 -30 0 0 -87zm0 175l30 0 0 88 -30 0 0 -88zm0 176l30 0 0 88 -30 0 0 -88zm0 175l30 0 0 88 -30 0 0 -88zm0 176l30 0 0 88 -30 0 0 -88zm0 175l30 0 0 88 -30 0 0 -88zm0 176l30 0 0 88 -30 0 0 -88zm0 176l30 0 0 87 -30 0 0 -87zm0 175l30 0 0 88 -30 0 0 -88zm0 176l30 0 0 87 -30 0 0 -87zm0 175l30 0 0 88 -30 0 0 -88zm0 176l30 0 0 88 -30 0 0 -88zm0 175l30 0 0 88 -30 0 0 -88zm0 176l30 0 0 88 -30 0 0 -88zm0 175l30 0 0 88 -30 0 0 -88z"/>
   <polygon class="fil0" points="1470,1526 1470,1467 1529,1467 1529,1497 1500,1497 1500,1526 "/>
   <path class="fil0" d="M1706 1467l0 30 -87 0 0 -30 87 0zm3807 0l-32 0 0 30 32 0 0 -30zm-120 0l0 30 -88 0 0 -30 88 0zm-176 0l0 30 -87 0 0 -30 87 0zm-175 0l0 30 -88 0 0 -30 88 0zm-176 0l0 30 -88 0 0 -30 88 0zm-175 0l0 30 -88 0 0 -30 88 0zm-176 0l0 30 -88 0 0 -30 88 0zm-175 0l0 30 -88 0 0 -30 88 0zm-176 0l0 30 -88 0 0 -30 88 0zm-176 0l0 30 -87 0 0 -30 87 0zm-175 0l0 30 -88 0 0 -30 88 0zm-176 0l0 30 -87 0 0 -30 87 0zm-175 0l0 30 -88 0 0 -30 88 0zm-176 0l0 30 -88 0 0 -30 88 0zm-175 0l0 30 -88 0 0 -30 88 0zm-176 0l0 30 -88 0 0 -30 88 0zm-175 0l0 30 -88 0 0 -30 88 0zm-176 0l0 30 -88 0 0 -30 88 0zm-176 0l0 30 -87 0 0 -30 87 0zm-175 0l0 30 -88 0 0 -30 88 0zm-176 0l0 30 -87 0 0 -30 87 0zm-175 0l0 30 -88 0 0 -30 88 0z"/>
   <polygon class="fil0" points="5557,1467 5616,1467 5616,1526 5586,1526 5586,1497 5557,1497 "/>
   <path class="fil0" d="M5616 1702l-30 0 0 -88 30 0 0 88zm0 3686l-30 0 0 -88 30 0 0 88zm0 -175l-30 0 0 -88 30 0 0 88zm0 -176l-30 0 0 -88 30 0 0 88zm0 -175l-30 0 0 -88 30 0 0 88zm0 -176l-30 0 0 -88 30 0 0 88zm0 -176l-30 0 0 -87 30 0 0 87zm0 -175l-30 0 0 -88 30 0 0 88zm0 -176l-30 0 0 -87 30 0 0 87zm0 -175l-30 0 0 -88 30 0 0 88zm0 -176l-30 0 0 -88 30 0 0 88zm0 -175l-30 0 0 -88 30 0 0 88zm0 -176l-30 0 0 -88 30 0 0 88zm0 -175l-30 0 0 -88 30 0 0 88zm0 -176l-30 0 0 -88 30 0 0 88zm0 -176l-30 0 0 -87 30 0 0 87zm0 -175l-30 0 0 -88 30 0 0 88zm0 -176l-30 0 0 -87 30 0 0 87zm0 -175l-30 0 0 -88 30 0 0 88zm0 -176l-30 0 0 -88 30 0 0 88zm0 -175l-30 0 0 -88 30 0 0 88zm0 -176l-30 0 0 -88 30 0 0 88z"/>
   <polygon class="fil0" points="5550,885 1537,885 1537,855 5550,855 "/>
   <polygon class="fil0" points="5601,870 5528,840 5546,870 5528,900 "/>
   <polygon class="fil0" points="5534,827 5641,870 5494,930 5529,870 5494,810 "/>
   <polygon class="fil0" points="1485,870 1558,840 1541,870 1558,900 "/>
   <polygon class="fil0" points="1479,856 1593,810 1558,870 1593,930 1446,870 "/>
   <polygon class="fil0" points="6016,6482 1070,6482 1070,6453 6016,6453 "/>
   <polygon class="fil0" points="6068,6468 5995,6438 6012,6468 5995,6497 "/>
   <polygon class="fil0" points="6001,6424 6107,6467 5960,6527 5995,6467 5960,6408 "/>
   <polygon class="fil0" points="1019,6468 1091,6438 1074,6468 1091,6497 "/>
   <polygon class="fil0" points="1013,6454 1126,6408 1091,6467 1126,6527 979,6467 "/>
   <polygon class="fil0" points="6240,5474 6240,1534 6269,1534 6269,5474 "/>
   <polygon class="fil0" points="6254,5526 6284,5453 6254,5470 6225,5453 "/>
   <polygon class="fil0" points="6298,5458 6254,5565 6194,5418 6254,5453 6314,5418 "/>
   <polygon class="fil0" points="6254,1482 6284,1555 6254,1537 6225,1555 "/>
   <polygon class="fil0" points="6268,1476 6314,1590 6254,1555 6194,1590 6254,1443 "/>
   <polygon class="fil0" points="407,5940 407,1067 436,1067 436,5940 "/>
   <polygon class="fil0" points="421,5992 451,5919 421,5937 392,5919 "/>
   <polygon class="fil0" points="465,5925 421,6031 361,5885 421,5919 481,5885 "/>
   <polygon class="fil0" points="421,1015 451,1088 421,1071 392,1088 "/>
   <polygon class="fil0" points="435,1010 481,1123 421,1088 361,1123 421,976 "/>
  </g>
 </g>
</svg>
