<?xml version="1.0" encoding="UTF-8"?>
<!DOCTYPE svg PUBLIC "-//W3C//DTD SVG 1.1//EN" "http://www.w3.org/Graphics/SVG/1.1/DTD/svg11.dtd">
<!-- Creator: CorelDRAW X8 -->
<svg xmlns="http://www.w3.org/2000/svg" xml:space="preserve" width="279.4mm" height="215.9mm" version="1.1" style="shape-rendering:geometricPrecision; text-rendering:geometricPrecision; image-rendering:optimizeQuality; fill-rule:evenodd; clip-rule:evenodd"
viewBox="0 0 27940 21590"
 xmlns:xlink="http://www.w3.org/1999/xlink">
 <defs>
  <style type="text/css">
   <![CDATA[
    .fil1 {fill:white;fill-rule:nonzero}
    .fil0 {fill:white;fill-rule:nonzero}
   ]]>
  </style>
 </defs>
 <g id="Capa_x0020_2">
  <metadata id="CorelCorpID_0Corel-Layer"/>
  <g id="_1090863067376">
   <polygon class="fil0" points="18696,12188 18696,6568 18737,6568 18737,12188 "/>
   <polygon class="fil0" points="24357,6568 24357,12188 24316,12188 24316,6568 "/>
   <polygon class="fil0" points="18773,7117 24280,7117 24280,7158 18773,7158 "/>
   <path class="fil0" d="M18777 7138c10,-11 15,-31 15,-45 -14,19 -32,35 -55,45 23,9 40,26 55,45 -1,-16 -5,-34 -15,-45z"/>
   <path class="fil0" d="M18807 7125c-2,5 -4,9 -6,13 3,5 5,10 6,15 3,10 5,19 6,28l5 65 -41 -51c-7,-8 -14,-16 -23,-23 -7,-7 -15,-12 -24,-16l-46 -18 46 -19c8,-4 16,-9 24,-15 8,-7 16,-15 22,-23l38 -52 -1 64c-1,10 -3,22 -6,32z"/>
   <path class="fil0" d="M24276 7138c-10,-11 -15,-31 -16,-45 14,19 33,35 55,45 -22,9 -40,26 -55,45 1,-16 5,-34 16,-45z"/>
   <path class="fil0" d="M24251 7138c-2,-4 -3,-8 -5,-13 -4,-10 -6,-22 -6,-32l-2 -64 38 52c7,8 14,16 23,23 7,6 15,11 24,15l46 19 -46 18c-9,4 -17,9 -25,16 -8,7 -15,15 -22,23l-41 51 5 -65c1,-9 2,-18 5,-28 2,-5 4,-10 6,-15z"/>
   <polygon class="fil0" points="18752,5654 24301,5654 24301,5695 18752,5695 "/>
   <path class="fil0" d="M18756 5674c10,-10 15,-31 15,-45 -14,19 -32,36 -55,45 23,9 40,27 55,45 -1,-15 -5,-33 -15,-45z"/>
   <path class="fil0" d="M18785 5662c-1,4 -3,9 -5,12 3,5 5,10 6,16 3,9 5,19 5,28l6 64 -41 -50c-7,-8 -15,-17 -23,-23 -7,-7 -15,-12 -24,-16l-46 -18 46 -19c8,-4 16,-9 24,-15l0 0c8,-7 16,-15 22,-24l38 -51 -2 64c0,9 -2,21 -6,32z"/>
   <path class="fil0" d="M24297 5674c-10,-10 -15,-31 -16,-45 15,19 33,36 55,45 -22,9 -40,27 -55,45 2,-15 5,-33 16,-45z"/>
   <path class="fil0" d="M24272 5674c-2,-3 -3,-8 -5,-12 -4,-11 -6,-23 -6,-32l-2 -64 38 51c7,9 14,17 23,24 7,6 15,11 24,15l46 19 -46 18c-9,4 -17,9 -25,16 -8,6 -15,15 -22,23l-41 50 5 -64c1,-9 2,-19 5,-28 2,-6 4,-11 6,-16z"/>
   <polygon class="fil0" points="19154,12083 19154,6674 19194,6674 19194,12083 "/>
   <path class="fil0" d="M19174 12079c-10,-10 -31,-15 -45,-16 19,14 36,33 45,55 9,-22 27,-40 45,-55 -15,1 -33,5 -45,16z"/>
   <path class="fil0" d="M19162 12049c4,1 8,3 12,5 5,-2 10,-4 15,-6 10,-3 20,-4 29,-5l64 -5 -50 41c-8,7 -17,14 -24,22 -6,8 -12,16 -15,25l-18 45 -19 -45c-4,-9 -9,-17 -15,-24l0 0c-7,-9 -15,-16 -24,-23l-51 -38 64 2c9,0 21,2 32,6z"/>
   <path class="fil0" d="M19174 6678c-10,10 -31,15 -45,16 19,-15 36,-33 45,-55 9,22 27,40 45,55 -15,-2 -33,-5 -45,-16z"/>
   <path class="fil0" d="M19174 6703c-4,2 -8,3 -12,5 -11,4 -23,6 -32,6l-64 2 51 -38c9,-7 17,-14 24,-23l0 0c6,-7 11,-15 15,-24l19 -46 18 46c3,9 9,17 15,25 7,8 16,15 24,22l50 41 -64 -5c-9,-1 -19,-2 -29,-5 -5,-2 -10,-4 -15,-6z"/>
   <polygon class="fil0" points="18546,12153 18546,6604 18587,6604 18587,12153 "/>
   <path class="fil0" d="M18566 12149c-10,-10 -31,-15 -45,-16 19,15 36,33 45,55 9,-22 27,-40 45,-55 -15,2 -33,5 -45,16z"/>
   <path class="fil0" d="M18554 12119c4,2 9,3 12,6 5,-3 10,-5 16,-7 9,-3 19,-4 28,-5l64 -5 -50 41c-8,7 -17,14 -23,22 -7,8 -12,16 -16,25l-18 46 -19 -46c-4,-9 -9,-17 -15,-24l0 0c-7,-9 -15,-16 -24,-22l-51 -39 64 2c9,1 21,2 32,6z"/>
   <path class="fil0" d="M18566 6608c-10,10 -31,15 -45,15 19,-14 36,-32 45,-55 9,23 27,40 45,55 -15,-1 -33,-4 -45,-15z"/>
   <path class="fil0" d="M18566 6632c-3,2 -8,4 -12,6 -11,3 -23,5 -32,6l-64 1 51 -38c9,-6 17,-14 24,-22l0 0c6,-7 11,-16 15,-24l19 -46 18 46c4,9 9,17 16,25 6,8 15,15 23,22l50 41 -64 -5c-9,-1 -19,-3 -28,-6 -6,-1 -11,-3 -16,-6z"/>
   <polygon class="fil0" points="24612,12856 24612,5901 24652,5901 24652,12856 "/>
   <path class="fil0" d="M24632 12852c-11,-11 -31,-16 -45,-16 19,14 35,33 45,55 9,-22 26,-40 45,-55 -15,1 -34,5 -45,16z"/>
   <path class="fil0" d="M24620 12822c4,1 8,3 12,5 5,-2 10,-5 15,-6 10,-3 20,-5 28,-5l65 -5 -50 41c-9,6 -17,14 -24,22 -7,7 -12,15 -16,24l-18 46 -19 -45c-4,-9 -9,-17 -15,-25 -7,-8 -15,-16 -23,-22l-52 -38 64 2c10,0 22,2 33,6z"/>
   <path class="fil0" d="M24632 5905c-11,11 -31,16 -45,16 19,-14 35,-33 45,-55 9,22 26,40 45,55 -15,-1 -34,-5 -45,-16z"/>
   <path class="fil0" d="M24632 5930c-4,2 -8,4 -12,5 -11,4 -23,6 -33,6l-64 2 52 -38c8,-7 16,-14 23,-23 6,-7 11,-15 15,-24l19 -45 18 45c4,9 9,18 16,25 7,8 15,15 24,22l50 41 -65 -5c-8,-1 -18,-2 -28,-5 -5,-2 -10,-4 -15,-6z"/>
   <polygon class="fil0" points="18292,6533 18292,5901 18333,5901 18333,6533 "/>
   <path class="fil0" d="M18313 6529c-11,-10 -31,-15 -45,-16 19,15 35,33 45,55 9,-22 26,-39 45,-55 -16,2 -34,5 -45,16z"/>
   <path class="fil0" d="M18300 6499c5,2 9,4 13,6 5,-3 10,-5 15,-7 10,-2 19,-4 28,-5l65 -5 -51 41c-8,7 -16,14 -23,22 -7,8 -12,16 -16,25l-18 46 -19 -46c-4,-8 -9,-17 -15,-24l0 0c-7,-8 -15,-16 -23,-22l-52 -38 64 1c10,1 22,3 32,6z"/>
   <path class="fil0" d="M18313 5905c-11,11 -31,16 -45,16 19,-14 35,-33 45,-55 9,22 26,40 45,55 -16,-1 -34,-5 -45,-16z"/>
   <path class="fil0" d="M18313 5930c-4,2 -8,4 -13,5 -10,4 -22,6 -32,6l-64 2 52 -38c8,-7 16,-14 23,-23 6,-7 11,-15 15,-24l19 -45 18 46c4,8 9,16 16,24 7,8 15,15 23,22l51 41 -65 -5c-9,-1 -18,-2 -28,-5 -5,-2 -10,-4 -15,-6z"/>
   <polygon class="fil0" points="20866,6463 20866,5901 20906,5901 20906,6463 "/>
   <path class="fil0" d="M20886 6459c-10,-10 -31,-15 -45,-16 19,14 36,33 45,55 9,-22 27,-40 45,-55 -15,1 -34,5 -45,16z"/>
   <path class="fil0" d="M20874 6429c4,2 8,3 12,5 5,-2 10,-4 15,-6 10,-3 20,-4 28,-5l65 -5 -50 41c-9,7 -17,14 -24,22 -6,8 -12,16 -15,25l-19 46 -19 -46c-3,-9 -8,-17 -14,-24l0 0c-7,-9 -15,-16 -24,-23l-51 -38 63 2c10,0 22,2 33,6z"/>
   <path class="fil0" d="M20886 5905c-10,11 -31,16 -45,16 19,-14 36,-33 45,-55 9,22 27,40 45,55 -15,-1 -34,-5 -45,-16z"/>
   <path class="fil0" d="M20886 5930c-4,2 -8,4 -12,5 -11,4 -23,6 -33,6l-63 2 51 -38c9,-7 17,-14 24,-23 6,-7 11,-15 14,-24l19 -45 19 45c3,9 9,18 15,25 7,8 15,15 24,22l50 41 -65 -5c-8,-1 -18,-2 -28,-5 -5,-2 -10,-4 -15,-6z"/>
   <polygon class="fil0" points="18292,12856 18292,12224 18333,12224 18333,12856 "/>
   <path class="fil0" d="M18313 12852c-11,-11 -31,-16 -45,-16 19,14 35,33 45,55 9,-22 26,-40 45,-55 -16,1 -34,5 -45,16z"/>
   <path class="fil0" d="M18300 12822c5,1 9,3 13,5 5,-2 10,-5 15,-6 10,-3 19,-5 28,-5l65 -5 -51 41c-8,6 -16,14 -23,22 -7,7 -12,15 -16,24l-18 46 -19 -45c-4,-9 -9,-17 -15,-25 -7,-8 -15,-16 -23,-22l-52 -38 64 2c10,0 22,2 32,6z"/>
   <path class="fil0" d="M18313 12228c-11,10 -31,15 -45,15 19,-14 35,-32 45,-55 9,23 26,40 45,55 -16,-1 -34,-5 -45,-15z"/>
   <path class="fil0" d="M18313 12252c-4,2 -8,4 -13,6 -10,3 -22,5 -32,6l-64 1 52 -38c8,-6 16,-14 23,-22 6,-8 11,-16 15,-24l19 -46 18 46c4,9 9,17 16,24 7,8 15,16 23,23l51 41 -65 -5c-9,-1 -18,-3 -28,-6 -5,-1 -11,-3 -15,-6z"/>
   <polygon class="fil0" points="18696,6568 18696,5846 24357,5846 24357,6568 24316,6568 24316,5886 18737,5886 18737,6568 "/>
   <path class="fil0" d="M18835 12168l0 41 -119 0 0 -41 119 0zm5472 0l0 41 -119 0 0 -41 119 0zm-238 0l0 41 -119 0 0 -41 119 0zm-238 0l0 41 -119 0 0 -41 119 0zm-238 0l0 41 -119 0 0 -41 119 0zm-238 0l0 41 -119 0 0 -41 119 0zm-238 0l0 41 -119 0 0 -41 119 0zm-238 0l0 41 -118 0 0 -41 118 0zm-237 0l0 41 -119 0 0 -41 119 0zm-238 0l0 41 -119 0 0 -41 119 0zm-238 0l0 41 -119 0 0 -41 119 0zm-238 0l0 41 -119 0 0 -41 119 0zm-238 0l0 41 -119 0 0 -41 119 0zm-238 0l0 41 -119 0 0 -41 119 0zm-238 0l0 41 -119 0 0 -41 119 0zm-238 0l0 41 -119 0 0 -41 119 0zm-238 0l0 41 -119 0 0 -41 119 0zm-237 0l0 41 -119 0 0 -41 119 0zm-238 0l0 41 -119 0 0 -41 119 0zm-238 0l0 41 -119 0 0 -41 119 0zm-238 0l0 41 -119 0 0 -41 119 0zm-238 0l0 41 -119 0 0 -41 119 0zm-238 0l0 41 -119 0 0 -41 119 0zm-238 0l0 41 -119 0 0 -41 119 0z"/>
   <path class="fil0" d="M24217 6589l0 -41 119 0 0 41 -119 0zm-5471 0l0 -41 119 0 0 41 -119 0zm238 0l0 -41 119 0 0 41 -119 0zm238 0l0 -41 119 0 0 41 -119 0zm238 0l0 -41 118 0 0 41 -118 0zm237 0l0 -41 119 0 0 41 -119 0zm238 0l0 -41 119 0 0 41 -119 0zm238 0l0 -41 119 0 0 41 -119 0zm238 0l0 -41 119 0 0 41 -119 0zm238 0l0 -41 119 0 0 41 -119 0zm238 0l0 -41 119 0 0 41 -119 0zm238 0l0 -41 119 0 0 41 -119 0zm238 0l0 -41 119 0 0 41 -119 0zm238 0l0 -41 118 0 0 41 -118 0zm237 0l0 -41 119 0 0 41 -119 0zm238 0l0 -41 119 0 0 41 -119 0zm238 0l0 -41 119 0 0 41 -119 0zm238 0l0 -41 119 0 0 41 -119 0zm238 0l0 -41 119 0 0 41 -119 0zm238 0l0 -41 119 0 0 41 -119 0zm238 0l0 -41 119 0 0 41 -119 0zm238 0l0 -41 119 0 0 41 -119 0zm238 0l0 -41 118 0 0 41 -118 0zm237 0l0 -41 119 0 0 41 -119 0z"/>
   <path class="fil0" d="M24357 12188l0 723c-1887,0 -3774,0 -5661,0l0 -723 41 0 0 683 5579 0 0 -683 41 0z"/>
   <path class="fil1" d="M21591 5397l-145 0 -30 96 -93 0 150 -445 92 0 149 445 -93 0 -30 -96zm-123 -70l101 0 -49 -156 -2 0 -50 156z"/>
   <path class="fil1" d="M17723 6271l0 161 -89 0 0 -444 170 0c51,0 91,13 121,39 29,26 44,60 44,103 0,42 -15,77 -44,102 -30,26 -70,39 -121,39l-81 0zm0 -69l81 0c25,0 43,-6 56,-20 13,-13 20,-31 20,-52 0,-21 -7,-39 -19,-53 -13,-14 -32,-21 -57,-21l-81 0 0 146z"/>
   <path class="fil1" d="M20439 6224c0,49 -12,88 -34,118 -23,30 -54,44 -95,44 -17,0 -33,-3 -46,-9 -14,-7 -25,-16 -35,-29l0 159 -89 0 0 -458 81 0 5 40c10,-15 22,-26 35,-34 14,-8 30,-12 48,-12 41,0 73,16 96,48 22,32 34,74 34,126l0 7zm-90 -7c0,-31 -5,-56 -15,-75 -11,-20 -26,-29 -48,-29 -13,0 -25,2 -34,8 -10,5 -17,13 -23,23l0 145c6,10 13,17 23,22 9,5 21,7 35,7 21,0 37,-9 47,-25 10,-17 15,-40 15,-69l0 -7z"/>
   <polygon id="1" class="fil1" points="20574,6014 20543,6101 20499,6101 20499,5935 20574,5935 "/>
   <path class="fil1" d="M21632 7074c-3,-7 -6,-15 -8,-24 -3,-8 -4,-17 -5,-25 -10,16 -22,29 -37,40 -15,10 -33,16 -53,16 -35,0 -62,-9 -80,-27 -19,-18 -29,-42 -29,-73 0,-32 13,-57 38,-75 25,-18 61,-27 109,-27l50 0 0 -26c0,-16 -4,-29 -12,-37 -9,-9 -21,-13 -38,-13 -14,0 -25,3 -33,10 -8,7 -12,17 -12,29l-86 0 0 -2c-2,-28 10,-52 36,-72 26,-20 60,-30 101,-30 40,0 72,10 96,30 25,19 37,48 37,85l0 137c0,15 1,30 4,44 2,13 6,27 11,40l-89 0zm-81 -59c15,0 29,-4 41,-12 12,-8 21,-17 25,-27l0 -47 -50 0c-19,0 -33,5 -43,14 -10,10 -14,21 -14,35 0,11 3,20 10,27 8,6 18,10 31,10z"/>
   <polygon id="1" class="fil1" points="21858,6709 21826,6796 21782,6796 21782,6629 21858,6629 "/>
   <path class="fil1" d="M19618 9320c10,-15 23,-27 38,-35 15,-9 32,-13 50,-13 34,0 61,11 81,34 20,23 30,58 30,106l0 196 -90 0 0 -196c0,-26 -4,-44 -12,-55 -8,-10 -21,-16 -37,-16 -14,0 -26,2 -36,7 -10,4 -18,10 -24,19l0 241 -89 0 0 -476 89 0 0 188z"/>
   <polygon id="1" class="fil1" points="19968,9243 19937,9330 19893,9330 19893,9164 19968,9164 "/>
   <polygon class="fil1" points="18417,9605 18328,9605 18328,9420 18147,9420 18147,9605 18058,9605 18058,9160 18147,9160 18147,9352 18328,9352 18328,9160 18417,9160 "/>
   <polygon class="fil1" points="24849,9533 25048,9533 25048,9601 24760,9601 24760,9156 24849,9156 "/>
   <path class="fil1" d="M17753 12619l0 161 -90 0 0 -445 170 0c52,0 92,13 121,39 29,26 44,61 44,103 0,43 -15,77 -44,103 -29,26 -69,39 -121,39l-80 0zm0 -69l80 0c25,0 44,-7 57,-20 13,-14 19,-31 19,-52 0,-21 -6,-39 -19,-53 -13,-14 -31,-21 -57,-21l-80 0 0 146z"/>
  </g>
 </g>
</svg>
