<?xml version="1.0" encoding="UTF-8"?>
<!DOCTYPE svg PUBLIC "-//W3C//DTD SVG 1.1//EN" "http://www.w3.org/Graphics/SVG/1.1/DTD/svg11.dtd">
<!-- Creator: CorelDRAW X8 -->
<svg xmlns="http://www.w3.org/2000/svg" xml:space="preserve" width="279.4mm" height="215.9mm" version="1.1" style="shape-rendering:geometricPrecision; text-rendering:geometricPrecision; image-rendering:optimizeQuality; fill-rule:evenodd; clip-rule:evenodd"
viewBox="0 0 27940 21590"
 xmlns:xlink="http://www.w3.org/1999/xlink">
 <defs>
  <style type="text/css">
   <![CDATA[
    .fil0 {fill:white;fill-rule:nonzero}
    .fil1 {fill:white;fill-rule:nonzero}
   ]]>
  </style>
 </defs>
 <g id="Capa_x0020_2">
  <metadata id="CorelCorpID_0Corel-Layer"/>
  <g id="_1090824845168">
   <path class="fil0" d="M13489 6361c-3,-8 -6,-16 -8,-24 -2,-9 -4,-17 -5,-26 -9,16 -21,30 -36,40 -15,11 -33,16 -54,16 -35,0 -61,-9 -80,-27 -19,-18 -28,-42 -28,-73 0,-32 12,-57 37,-75 25,-18 61,-27 109,-27l50 0 0 -26c0,-16 -4,-28 -12,-37 -8,-8 -21,-13 -37,-13 -15,0 -26,4 -34,11 -8,7 -12,16 -12,28l-85 0 -1 -1c-1,-28 11,-52 37,-73 25,-20 59,-30 100,-30 40,0 72,10 97,30 24,20 37,49 37,86l0 136c0,16 1,30 3,44 2,14 6,27 11,41l-89 0zm-81 -60c15,0 29,-4 41,-12 13,-7 21,-16 25,-26l0 -47 -50 0c-19,0 -33,5 -43,14 -9,9 -14,21 -14,34 0,12 4,21 11,27 7,7 17,10 30,10z"/>
   <polygon id="1" class="fil0" points="13715,5995 13684,6082 13640,6082 13640,5916 13715,5916 "/>
   <polygon id="2" class="fil0" points="13874,5995 13843,6082 13799,6082 13799,5916 13874,5916 "/>
   <polygon class="fil1" points="10257,12691 10257,6993 10288,6993 10288,12691 "/>
   <polygon class="fil1" points="10272,12744 10303,12669 10272,12687 10242,12669 "/>
   <polygon class="fil1" points="10317,12675 10272,12784 10210,12633 10272,12669 10334,12633 "/>
   <polygon class="fil1" points="10272,6940 10303,7015 10272,6997 10242,7015 "/>
   <polygon class="fil1" points="10286,6934 10334,7051 10272,7015 10210,7051 10272,6900 "/>
   <polygon class="fil1" points="15824,12691 15824,12456 15855,12456 15855,12691 "/>
   <polygon class="fil1" points="15840,12744 15870,12669 15840,12687 15809,12669 "/>
   <polygon class="fil1" points="15884,12675 15840,12784 15778,12633 15840,12669 15901,12633 "/>
   <polygon class="fil1" points="15840,12402 15870,12477 15840,12459 15809,12477 "/>
   <polygon class="fil1" points="15854,12397 15901,12513 15840,12477 15778,12513 15840,12362 "/>
   <polygon class="fil1" points="15824,7228 15824,6993 15855,6993 15855,7228 "/>
   <polygon class="fil1" points="15840,7281 15870,7206 15840,7224 15809,7206 "/>
   <polygon class="fil1" points="15884,7212 15840,7322 15778,7171 15840,7207 15901,7171 "/>
   <polygon class="fil1" points="15840,6940 15870,7015 15840,6997 15809,7015 "/>
   <polygon class="fil1" points="15854,6934 15901,7051 15840,7015 15778,7051 15840,6900 "/>
   <polygon class="fil1" points="10684,7677 10919,7677 10919,7707 10684,7707 "/>
   <polygon class="fil1" points="10631,7692 10706,7723 10688,7692 10706,7661 "/>
   <polygon class="fil1" points="10700,7737 10590,7692 10741,7630 10706,7692 10741,7754 "/>
   <polygon class="fil1" points="10972,7692 10897,7723 10915,7692 10897,7661 "/>
   <polygon class="fil1" points="10978,7706 10861,7754 10897,7692 10861,7630 11013,7692 "/>
   <polygon class="fil1" points="16221,12213 16456,12213 16456,12244 16221,12244 "/>
   <polygon class="fil1" points="16168,12228 16243,12259 16225,12228 16243,12198 "/>
   <polygon class="fil1" points="16237,12273 16127,12228 16279,12167 16243,12228 16279,12290 "/>
   <polygon class="fil1" points="16509,12228 16434,12259 16452,12228 16434,12198 "/>
   <polygon class="fil1" points="16515,12243 16399,12290 16434,12228 16399,12167 16550,12228 "/>
   <polygon class="fil1" points="16115,13066 11025,13066 11025,13035 16115,13035 "/>
   <polygon class="fil1" points="16168,13050 16093,13020 16111,13050 16093,13081 "/>
   <polygon class="fil1" points="16099,13006 16208,13050 16057,13112 16093,13050 16057,12989 "/>
   <polygon class="fil1" points="10972,13050 11047,13020 11029,13050 11047,13081 "/>
   <polygon class="fil1" points="10966,13036 11083,12989 11047,13050 11083,13112 10932,13050 "/>
   <polygon class="fil1" points="16760,12349 16760,7335 16790,7335 16790,12349 "/>
   <polygon class="fil1" points="16775,12402 16806,12327 16775,12345 16744,12327 "/>
   <polygon class="fil1" points="16820,12333 16775,12443 16713,12292 16775,12328 16837,12292 "/>
   <polygon class="fil1" points="16775,7281 16806,7356 16775,7338 16744,7356 "/>
   <polygon class="fil1" points="16789,7276 16837,7392 16775,7356 16713,7392 16775,7241 "/>
   <polygon class="fil1" points="10676,6632 16464,6632 16464,6662 10676,6662 "/>
   <polygon class="fil1" points="10697,6675 10685,6647 10697,6619 10631,6647 "/>
   <polygon class="fil1" points="10702,6647 10726,6704 10591,6647 10726,6590 "/>
   <polygon class="fil1" points="16443,6675 16455,6647 16443,6619 16509,6647 "/>
   <polygon class="fil1" points="16429,6669 16438,6647 16414,6590 16549,6647 16414,6704 "/>
   <path class="fil1" d="M11132 7266l305 0 0 -53 44 0 21 -288 4136 0 21 288 44 0 0 53 320 0 0 400 -303 101 15 11 433 0 3 0 52 11 302 22 0 4061 -302 23 -52 10 -3 1 -433 0 -15 11 303 101 0 400 -320 0 0 53 -44 0 -21 288 -4136 0 -21 -288 -44 0 0 -53 -320 0 0 -400 303 -101 -15 -11 -433 0 -3 -1 -52 -10 -302 -23 0 -4061 302 -22 52 -11 3 0 433 0 15 -11 -303 -101 0 -400 15 0zm320 31l-304 0 0 347 337 112 -70 53 -441 0 -52 10 -2 0 -274 21 0 4004 274 20 2 1 52 10 441 0 70 53 -337 112 0 347 320 0 0 53 41 0 22 288 4079 0 21 -288 41 0 0 -53 320 0 0 -347 -337 -112 70 -53 441 0 52 -10 2 -1 274 -20 0 -4004 -274 -21 -2 0 -52 -10 -441 0 -70 -53 337 -112 0 -347 -320 0 0 -54 -41 0 -21 -288 -4079 0 -22 288 -41 0 0 54 -16 0z"/>
   <path class="fil1" d="M15672 7671l31 0 0 75 25 0 0 31 -56 0 0 -106zm146 106l0 -31 90 0 0 31 -90 0zm181 0l0 -31 90 0 0 31 -90 0zm153 -4l31 0 0 90 -31 0 0 -90zm0 181l31 0 0 90 -31 0 0 -90zm0 180l31 0 0 91 -31 0 0 -91zm0 181l31 0 0 90 -31 0 0 -90zm0 181l31 0 0 90 -31 0 0 -90zm0 180l31 0 0 91 -31 0 0 -91zm0 181l31 0 0 90 -31 0 0 -90zm0 181l31 0 0 90 -31 0 0 -90zm0 180l31 0 0 90 -31 0 0 -90zm0 181l31 0 0 90 -31 0 0 -90zm0 180l31 0 0 91 -31 0 0 -91zm0 181l31 0 0 90 -31 0 0 -90zm0 181l31 0 0 90 -31 0 0 -90zm0 180l31 0 0 91 -31 0 0 -91zm0 181l31 0 0 90 -31 0 0 -90zm0 181l31 0 0 90 -31 0 0 -90zm0 180l31 0 0 91 -31 0 0 -91zm0 181l31 0 0 90 -31 0 0 -90zm0 181l31 0 0 90 -31 0 0 -90zm0 180l31 0 0 91 -31 0 0 -91zm0 181l31 0 0 90 -31 0 0 -90zm0 181l31 0 0 90 -31 0 0 -90zm0 180l31 0 0 90 -31 0 0 -90zm10 160l0 31 -90 0 0 -31 90 0zm-180 0l0 31 -91 0 0 -31 91 0zm-181 0l0 31 -90 0 0 -31 90 0zm-129 83l31 0 0 90 -31 0 0 -90zm0 180l31 0 0 91 -31 0 0 -91zm0 181l31 0 0 67 -54 0 0 -31 23 0 0 -36zm-113 36l0 31 -91 0 0 -31 91 0zm-181 0l0 31 -90 0 0 -31 90 0zm-181 0l0 31 -90 0 0 -31 90 0zm-180 0l0 31 -91 0 0 -31 91 0zm-181 0l0 31 -90 0 0 -31 90 0zm-181 0l0 31 -90 0 0 -31 90 0zm-180 0l0 31 -91 0 0 -31 91 0zm-181 0l0 31 -90 0 0 -31 90 0zm-181 0l0 31 -90 0 0 -31 90 0zm-180 0l0 31 -91 0 0 -31 91 0zm-181 0l0 31 -90 0 0 -31 90 0zm-181 0l0 31 -90 0 0 -31 90 0zm-180 0l0 31 -90 0 0 -31 90 0zm-181 0l0 31 -90 0 0 -31 90 0zm-180 0l0 31 -91 0 0 -31 91 0zm-181 0l0 31 -90 0 0 -31 90 0zm-181 0l0 31 -90 0 0 -31 90 0zm-180 0l0 31 -91 0 0 -31 91 0zm-181 0l0 31 -90 0 0 -31 90 0zm-181 0l0 31 -90 0 0 -31 90 0zm-180 0l0 31 -91 0 0 -31 91 0zm-181 0l0 31 -90 0 0 -31 90 0zm-181 0l0 31 -90 0 0 -31 90 0zm-116 -33l-31 0 0 -90 31 0 0 90zm0 -181l-31 0 0 -90 31 0 0 90zm0 -180l-31 0 0 -55 -5 0 0 -31 36 0 0 86zm-126 -86l0 31 -90 0 0 -31 90 0zm-181 0l0 31 -90 0 0 -31 90 0zm-180 22l0 9 -24 0 0 -98 31 0 0 82 -7 7zm7 -179l-31 0 0 -90 31 0 0 90zm0 -181l-31 0 0 -90 31 0 0 90zm0 -180l-31 0 0 -91 31 0 0 91zm0 -181l-31 0 0 -90 31 0 0 90zm0 -180l-31 0 0 -91 31 0 0 91zm0 -181l-31 0 0 -90 31 0 0 90zm0 -181l-31 0 0 -90 31 0 0 90zm0 -180l-31 0 0 -91 31 0 0 91zm0 -181l-31 0 0 -90 31 0 0 90zm0 -181l-31 0 0 -90 31 0 0 90zm0 -180l-31 0 0 -91 31 0 0 91zm0 -181l-31 0 0 -90 31 0 0 90zm0 -181l-31 0 0 -90 31 0 0 90zm0 -180l-31 0 0 -91 31 0 0 91zm0 -181l-31 0 0 -90 31 0 0 90zm0 -181l-31 0 0 -90 31 0 0 90zm0 -180l-31 0 0 -91 31 0 0 91zm0 -181l-31 0 0 -90 31 0 0 90zm0 -180l-31 0 0 -91 31 0 0 91zm0 -181l-31 0 0 -90 31 0 0 90zm0 -181l-31 0 0 -90 31 0 0 90zm0 -180l-31 0 0 -91 31 0 0 91zm-17 -181l-14 0 0 -30 91 0 0 31 -76 0 -1 -1zm167 1l0 -31 91 0 0 31 -91 0zm181 0l0 -31 90 0 0 31 -90 0zm149 -63l-31 0 0 -90 31 0 0 90zm0 -181l-31 0 0 -90 31 0 0 90zm0 -180l-31 0 0 -87 34 0 0 31 -3 0 0 56zm93 -56l0 -31 91 0 0 31 -91 0zm181 0l0 -31 90 0 0 31 -90 0zm181 0l0 -31 90 0 0 31 -90 0zm180 0l0 -31 91 0 0 31 -91 0zm181 0l0 -31 90 0 0 31 -90 0zm181 0l0 -31 90 0 0 31 -90 0zm180 0l0 -31 91 0 0 31 -91 0zm181 0l0 -31 90 0 0 31 -90 0zm181 0l0 -31 90 0 0 31 -90 0zm180 0l0 -31 91 0 0 31 -91 0zm181 0l0 -31 90 0 0 31 -90 0zm181 0l0 -31 90 0 0 31 -90 0zm180 0l0 -31 90 0 0 31 -90 0zm181 0l0 -31 90 0 0 31 -90 0zm180 0l0 -31 91 0 0 31 -91 0zm181 0l0 -31 90 0 0 31 -90 0zm181 0l0 -31 90 0 0 31 -90 0zm180 0l0 -31 91 0 0 31 -91 0zm181 0l0 -31 90 0 0 31 -90 0zm181 0l0 -31 90 0 0 31 -90 0zm180 0l0 -31 91 0 0 31 -91 0zm181 0l0 -31 90 0 0 31 -90 0zm181 0l0 -31 90 0 0 31 -90 0zm136 13l31 0 0 90 -31 0 0 -90zm0 180l31 0 0 91 -31 0 0 -91z"/>
   <polygon class="fil0" points="17391,10610 17302,10610 17302,10134 17391,10134 "/>
   <path class="fil0" d="M13719 13578c0,49 -12,89 -34,118 -22,30 -53,45 -95,45 -19,0 -36,-4 -50,-13 -15,-8 -27,-20 -37,-35l-7 41 -76 0 0 -476 89 0 0 181c10,-13 21,-24 35,-31 13,-7 28,-10 46,-10 42,0 73,15 95,47 22,32 34,74 34,127l0 6zm-89 -6c0,-32 -5,-58 -15,-77 -9,-19 -25,-28 -48,-28 -14,0 -26,3 -35,9 -10,6 -17,14 -23,25l0 140c6,9 13,17 23,22 10,6 21,8 36,8 23,0 39,-8 48,-24 9,-16 14,-39 14,-69l0 -6z"/>
   <path class="fil0" d="M9609 9789c10,-15 23,-27 38,-36 15,-8 32,-12 50,-12 35,0 62,11 81,34 20,23 30,58 30,106l0 196 -89 0 0 -196c0,-26 -4,-44 -13,-55 -8,-10 -20,-16 -37,-16 -13,0 -25,2 -35,7 -10,4 -19,10 -25,19l0 241 -89 0 0 -476 89 0 0 188z"/>
   <polygon id="1" class="fil0" points="9960,9712 9929,9799 9885,9799 9885,9633 9960,9633 "/>
   <polygon id="2" class="fil0" points="10119,9712 10087,9799 10043,9799 10043,9633 10119,9633 "/>
  </g>
 </g>
</svg>
