<svg id="suajes" xmlns="http://www.w3.org/2000/svg" viewBox="0 0 1700.79 1700.79"><defs><style>.cls-1,.cls-17,.cls-21,.cls-5,.cls-8{font-size:90px;}.cls-1{fill:#00aeef;letter-spacing:-0.03em;}.cls-1,.cls-12,.cls-17,.cls-21,.cls-5,.cls-8,.cls-9{font-family:MyriadPro-Bold, Myriad Pro;font-weight:700;}.cls-2{letter-spacing:-0.06em;}.cls-3{letter-spacing:-0.07em;}.cls-13,.cls-14,.cls-15,.cls-18,.cls-22,.cls-23,.cls-24,.cls-4{fill:none;stroke-miterlimit:10;stroke-width:4px;}.cls-4{stroke:#231f20;}.cls-16,.cls-5{fill:#ee2a7b;}.cls-6{letter-spacing:-0.06em;}.cls-7{letter-spacing:-0.07em;}.cls-20,.cls-8{fill:#00a651;}.cls-8{letter-spacing:-0.03em;}.cls-12,.cls-9{font-size:24px;fill:#231f20;}.cls-9{letter-spacing:0.01em;}.cls-10{letter-spacing:-0.06em;}.cls-11{letter-spacing:-0.07em;}.cls-12{letter-spacing:0.02em;}.cls-13{stroke:#00aeef;stroke-dasharray:12;}.cls-14{stroke:#00a651;}.cls-15,.cls-24{stroke:#ee2a7b;}.cls-17,.cls-19,.cls-21{fill:#f15a29;}.cls-17{letter-spacing:0.01em;}.cls-18,.cls-22,.cls-23{stroke:#f15a29;}.cls-21{letter-spacing:0.02em;}.cls-22{stroke-dasharray:6;}.cls-23{stroke-dasharray:4.72 4.72;}.cls-24{stroke-dasharray:5;}</style></defs><title> Desarrollo - Caja Marco Interno - ORIGINAL - BOB</title><text class="cls-1" transform="translate(823.94 491.21)">m<tspan class="cls-2" x="75.06" y="0">’</tspan><tspan class="cls-3" x="92.61" y="0">’</tspan></text><polyline class="cls-4" points="315.31 346.32 315.31 327.76 325.35 327.76"/><polyline class="cls-4" points="354.29 327.76 1400.98 327.76 1400.98 1383.95 315.31 1383.95 315.31 373.18"/><text class="cls-5" transform="translate(871.08 1463.22)">x</text><text class="cls-5" transform="translate(1445.26 855.85)">y</text><text class="cls-1" transform="translate(413.18 830.86)">n<tspan class="cls-6" x="50.4" y="0">’</tspan><tspan class="cls-7" x="67.95" y="0">’</tspan></text><text class="cls-8" transform="translate(390.29 446.39)">p<tspan class="cls-7" x="51.48" y="0">’</tspan></text><text class="cls-9" transform="translate(333.06 331.56)">x<tspan class="cls-10" x="12.79" y="0">’</tspan><tspan class="cls-11" x="17.47" y="0">’</tspan></text><text class="cls-12" transform="translate(306.14 362.95)">y<tspan class="cls-10" x="13.03" y="0">’</tspan><tspan class="cls-11" x="17.71" y="0">’</tspan></text><text class="cls-8" transform="translate(376.29 1283.38)">p<tspan class="cls-7" x="51.48" y="0">’</tspan></text><text class="cls-8" transform="translate(1260.47 446.39)">p<tspan class="cls-7" x="51.48" y="0">’</tspan></text><text class="cls-8" transform="translate(1257.47 1289.38)">p<tspan class="cls-7" x="51.48" y="0">’</tspan></text><rect class="cls-13" x="512.33" y="524.2" width="691.66" height="663.31"/><line class="cls-14" x1="1203.99" y1="348.45" x2="1203.99" y2="524.2"/><line class="cls-14" x1="512.33" y1="524.2" x2="512.33" y2="348.45"/><line class="cls-14" x1="512.33" y1="1363.26" x2="512.33" y2="1187.51"/><line class="cls-14" x1="1203.99" y1="1187.51" x2="1203.99" y2="1363.26"/><line class="cls-14" x1="1379.72" y1="1187.51" x2="1203.99" y2="1187.51"/><line class="cls-14" x1="1203.99" y1="524.2" x2="1379.72" y2="524.2"/><line class="cls-14" x1="336.58" y1="524.2" x2="512.33" y2="524.2"/><line class="cls-14" x1="512.33" y1="1187.51" x2="336.58" y2="1187.51"/><rect class="cls-15" x="336.58" y="348.45" width="1043.13" height="1014.81"/><line class="cls-15" x1="836.79" y1="1435.89" x2="360.45" y2="1435.89"/><polygon class="cls-16" points="371.69 1421.07 365.4 1435.89 371.69 1450.7 336.58 1435.89 371.69 1421.07"/><line class="cls-15" x1="1355.83" y1="1435.89" x2="954.12" y2="1435.89"/><polygon class="cls-16" points="1344.6 1421.07 1350.89 1435.89 1344.6 1450.7 1379.71 1435.89 1344.6 1421.07"/><text class="cls-17" transform="translate(819.81 290.4)">x<tspan class="cls-3" x="47.97" y="0">’</tspan></text><line class="cls-18" x1="788.17" y1="275.81" x2="314.97" y2="275.81"/><polygon class="cls-19" points="326.2 260.99 319.91 275.81 326.2 290.62 291.09 275.81 326.2 260.99"/><line class="cls-18" x1="1401.65" y1="275.81" x2="911.97" y2="275.81"/><polygon class="cls-19" points="1390.41 260.99 1396.71 275.81 1390.41 290.62 1425.53 275.81 1390.41 260.99"/><line class="cls-15" x1="1459.35" y1="911.55" x2="1459.35" y2="1339.38"/><polygon class="cls-16" points="1444.54 1328.15 1459.35 1334.44 1474.16 1328.15 1459.35 1363.26 1444.54 1328.15"/><line class="cls-15" x1="1459.35" y1="372.33" x2="1459.35" y2="783.58"/><polygon class="cls-16" points="1444.54 383.57 1459.35 377.27 1474.16 383.57 1459.35 348.45 1444.54 383.57"/><line class="cls-14" x1="1239.34" y1="372.94" x2="1239.34" y2="497.68"/><polygon class="cls-20" points="1224.53 384.18 1239.34 377.89 1254.15 384.18 1239.34 349.07 1224.53 384.18"/><polygon class="cls-20" points="1224.53 486.44 1239.34 492.74 1254.15 486.44 1239.34 521.56 1224.53 486.44"/><line class="cls-14" x1="477.38" y1="1212.9" x2="477.38" y2="1337.64"/><polygon class="cls-20" points="462.57 1224.14 477.38 1217.84 492.19 1224.14 477.38 1189.02 462.57 1224.14"/><polygon class="cls-20" points="462.57 1326.4 477.38 1332.69 492.19 1326.4 477.38 1361.52 462.57 1326.4"/><line class="cls-14" x1="363.47" y1="493.31" x2="488.21" y2="493.31"/><polygon class="cls-20" points="374.71 508.12 368.42 493.31 374.71 478.5 339.59 493.31 374.71 508.12"/><polygon class="cls-20" points="476.97 508.12 483.26 493.31 476.97 478.5 512.09 493.31 476.97 508.12"/><line class="cls-14" x1="1227.97" y1="1205.52" x2="1352.71" y2="1205.52"/><polygon class="cls-20" points="1239.21 1220.34 1232.91 1205.52 1239.21 1190.71 1204.09 1205.52 1239.21 1220.34"/><polygon class="cls-20" points="1341.47 1220.34 1347.76 1205.52 1341.47 1190.71 1376.58 1205.52 1341.47 1220.34"/><text class="cls-21" transform="translate(208.46 865.85)">y<tspan class="cls-3" x="48.87" y="0">’</tspan></text><line class="cls-18" x1="260.59" y1="912.93" x2="260.59" y2="1383.92"/><polygon class="cls-19" points="245.77 1372.69 260.59 1378.98 275.4 1372.69 260.59 1407.8 245.77 1372.69"/><line class="cls-18" x1="260.59" y1="327.04" x2="260.59" y2="779.5"/><polygon class="cls-19" points="245.77 338.27 260.59 331.98 275.4 338.27 260.59 303.16 245.77 338.27"/><rect class="cls-18" x="291.22" y="303.85" width="1133.86" height="1104.02"/><line class="cls-22" x1="1425.08" y1="270.66" x2="1425.08" y2="300.25"/><line class="cls-18" x1="291.22" y1="300.25" x2="291.22" y2="297.25"/><line class="cls-23" x1="291.22" y1="292.53" x2="291.22" y2="276.02"/><line class="cls-18" x1="291.22" y1="273.66" x2="291.22" y2="270.66"/><line class="cls-18" x1="289" y1="303.85" x2="286" y2="303.85"/><line class="cls-23" x1="281.29" y1="303.85" x2="264.77" y2="303.85"/><line class="cls-18" x1="262.41" y1="303.85" x2="259.41" y2="303.85"/><line class="cls-22" x1="289" y1="1407.87" x2="259.41" y2="1407.87"/><line class="cls-24" x1="1379.71" y1="348.45" x2="1461.33" y2="348.45"/><line class="cls-24" x1="1379.71" y1="1363.26" x2="1459.83" y2="1363.26"/><line class="cls-24" x1="1379.71" y1="1363.26" x2="1379.71" y2="1429.52"/><line class="cls-24" x1="336.58" y1="1363.26" x2="336.58" y2="1426.45"/></svg>