<svg id="suajes" xmlns="http://www.w3.org/2000/svg" viewBox="0 0 1700.79 1700.79"><defs><style>.cls-1,.cls-13,.cls-18,.cls-3,.cls-4{font-size:90px;}.cls-1{fill:#00aeef;}.cls-1,.cls-13,.cls-18,.cls-3,.cls-4,.cls-5,.cls-8{font-family:MyriadPro-Bold, Myriad Pro;font-weight:700;}.cls-10,.cls-11,.cls-15,.cls-19,.cls-2,.cls-20,.cls-21,.cls-9{fill:none;stroke-miterlimit:10;stroke-width:4px;}.cls-2{stroke:#231f20;}.cls-12,.cls-3{fill:#ee2a7b;}.cls-17,.cls-4{fill:#00a651;}.cls-5,.cls-8{font-size:24px;fill:#231f20;}.cls-5{letter-spacing:0.01em;}.cls-6{letter-spacing:-0.06em;}.cls-7{letter-spacing:-0.07em;}.cls-8{letter-spacing:0.02em;}.cls-9{stroke:#00aeef;stroke-dasharray:12;}.cls-10{stroke:#00a651;}.cls-11,.cls-21{stroke:#ee2a7b;}.cls-13,.cls-16,.cls-18{fill:#f15a29;}.cls-14{letter-spacing:-0.07em;}.cls-15,.cls-19,.cls-20{stroke:#f15a29;}.cls-18{letter-spacing:0em;}.cls-19{stroke-dasharray:6;}.cls-20{stroke-dasharray:4.72 4.72;}.cls-21{stroke-dasharray:5;}</style></defs><title> Desarrollo - Caja Marco Interno - ORIGINAL - BOB</title><text class="cls-1" transform="translate(851.33 483.71)">B</text><polyline class="cls-2" points="314.93 338.82 314.93 320.26 324.97 320.26"/><polyline class="cls-2" points="353.9 320.26 1400.6 320.26 1400.6 1376.45 314.93 1376.45 314.93 365.68"/><text class="cls-3" transform="translate(869.47 1470.72)">X</text><text class="cls-3" transform="translate(1441.28 866.36)">Y</text><text class="cls-1" transform="translate(424.41 823.36)">H</text><text class="cls-4" transform="translate(399.63 438.89)">T</text><text class="cls-5" transform="translate(332.68 324.06)">x<tspan class="cls-6" x="12.79" y="0">’</tspan><tspan class="cls-7" x="17.47" y="0">’</tspan></text><text class="cls-8" transform="translate(305.76 355.45)">y<tspan class="cls-6" x="13.03" y="0">’</tspan><tspan class="cls-7" x="17.71" y="0">’</tspan></text><text class="cls-4" transform="translate(385.63 1275.88)">T</text><text class="cls-4" transform="translate(1269.81 438.89)">T</text><text class="cls-4" transform="translate(1266.81 1281.88)">T</text><rect class="cls-9" x="511.94" y="516.7" width="691.66" height="663.31"/><line class="cls-10" x1="1203.61" y1="340.95" x2="1203.61" y2="516.7"/><line class="cls-10" x1="511.94" y1="516.7" x2="511.94" y2="340.95"/><line class="cls-10" x1="511.94" y1="1355.76" x2="511.94" y2="1180.01"/><line class="cls-10" x1="1203.61" y1="1180.01" x2="1203.61" y2="1355.76"/><line class="cls-10" x1="1379.33" y1="1180.01" x2="1203.61" y2="1180.01"/><line class="cls-10" x1="1203.61" y1="516.7" x2="1379.33" y2="516.7"/><line class="cls-10" x1="336.19" y1="516.7" x2="511.94" y2="516.7"/><line class="cls-10" x1="511.94" y1="1180.01" x2="336.19" y2="1180.01"/><rect class="cls-11" x="336.2" y="340.95" width="1043.13" height="1014.81"/><line class="cls-11" x1="836.41" y1="1428.39" x2="360.07" y2="1428.39"/><polygon class="cls-12" points="371.31 1413.57 365.01 1428.39 371.31 1443.2 336.19 1428.39 371.31 1413.57"/><line class="cls-11" x1="1355.45" y1="1428.39" x2="953.74" y2="1428.39"/><polygon class="cls-12" points="1344.22 1413.57 1350.51 1428.39 1344.22 1443.2 1379.33 1428.39 1344.22 1413.57"/><text class="cls-13" transform="translate(815.83 282.9)">X<tspan class="cls-14" x="55.17" y="0">’</tspan></text><line class="cls-15" x1="787.79" y1="268.31" x2="314.59" y2="268.31"/><polygon class="cls-16" points="325.82 253.49 319.53 268.31 325.82 283.12 290.71 268.31 325.82 253.49"/><line class="cls-15" x1="1401.27" y1="268.31" x2="911.59" y2="268.31"/><polygon class="cls-16" points="1390.03 253.49 1396.33 268.31 1390.03 283.12 1425.14 268.31 1390.03 253.49"/><line class="cls-11" x1="1458.97" y1="904.05" x2="1458.97" y2="1331.88"/><polygon class="cls-12" points="1444.15 1320.65 1458.96 1326.94 1473.78 1320.65 1458.96 1355.76 1444.15 1320.65"/><line class="cls-11" x1="1458.97" y1="364.83" x2="1458.97" y2="776.08"/><polygon class="cls-12" points="1444.15 376.07 1458.96 369.77 1473.78 376.07 1458.96 340.95 1444.15 376.07"/><line class="cls-10" x1="1238.96" y1="365.44" x2="1238.96" y2="490.18"/><polygon class="cls-17" points="1224.15 376.68 1238.96 370.39 1253.77 376.68 1238.96 341.56 1224.15 376.68"/><polygon class="cls-17" points="1224.15 478.94 1238.96 485.24 1253.77 478.94 1238.96 514.06 1224.15 478.94"/><line class="cls-10" x1="477" y1="1205.4" x2="477" y2="1330.14"/><polygon class="cls-17" points="462.18 1216.64 477 1210.34 491.81 1216.64 477 1181.52 462.18 1216.64"/><polygon class="cls-17" points="462.18 1318.9 477 1325.19 491.81 1318.9 477 1354.02 462.18 1318.9"/><line class="cls-10" x1="363.09" y1="485.81" x2="487.82" y2="485.81"/><polygon class="cls-17" points="374.32 500.62 368.03 485.81 374.32 471 339.21 485.81 374.32 500.62"/><polygon class="cls-17" points="476.59 500.62 482.88 485.81 476.59 471 511.7 485.81 476.59 500.62"/><line class="cls-10" x1="1227.59" y1="1198.02" x2="1352.32" y2="1198.02"/><polygon class="cls-17" points="1238.82 1212.84 1232.53 1198.02 1238.82 1183.21 1203.71 1198.02 1238.82 1212.84"/><polygon class="cls-17" points="1341.09 1212.84 1347.38 1198.02 1341.09 1183.21 1376.2 1198.02 1341.09 1212.84"/><text class="cls-18" transform="translate(205.24 858.35)">Y<tspan class="cls-14" x="54.54" y="0">’</tspan></text><line class="cls-15" x1="260.2" y1="905.43" x2="260.2" y2="1376.42"/><polygon class="cls-16" points="245.39 1365.19 260.2 1371.48 275.02 1365.19 260.2 1400.3 245.39 1365.19"/><line class="cls-15" x1="260.2" y1="319.53" x2="260.2" y2="772"/><polygon class="cls-16" points="245.39 330.77 260.2 324.48 275.02 330.77 260.2 295.66 245.39 330.77"/><rect class="cls-15" x="290.83" y="296.35" width="1133.86" height="1104.02"/><line class="cls-19" x1="1424.69" y1="263.16" x2="1424.69" y2="292.75"/><line class="cls-15" x1="290.83" y1="292.75" x2="290.83" y2="289.75"/><line class="cls-20" x1="290.83" y1="285.03" x2="290.83" y2="268.52"/><line class="cls-15" x1="290.83" y1="266.16" x2="290.83" y2="263.16"/><line class="cls-15" x1="288.62" y1="296.35" x2="285.62" y2="296.35"/><line class="cls-20" x1="280.9" y1="296.35" x2="264.39" y2="296.35"/><line class="cls-15" x1="262.03" y1="296.35" x2="259.03" y2="296.35"/><line class="cls-19" x1="288.62" y1="1400.37" x2="259.03" y2="1400.37"/><line class="cls-21" x1="1379.33" y1="340.95" x2="1460.95" y2="340.95"/><line class="cls-21" x1="1379.33" y1="1355.76" x2="1459.45" y2="1355.76"/><line class="cls-21" x1="1379.33" y1="1355.76" x2="1379.33" y2="1422.02"/><line class="cls-21" x1="336.19" y1="1355.76" x2="336.19" y2="1418.95"/></svg>