<svg id="suajes" xmlns="http://www.w3.org/2000/svg" viewBox="0 0 1700.79 1700.79"><defs><style>.cls-1,.cls-12,.cls-14,.cls-16,.cls-17,.cls-18,.cls-4{fill:none;stroke-miterlimit:10;stroke-width:4px;}.cls-1,.cls-4{stroke:#00a651;}.cls-1,.cls-18{stroke-dasharray:12;}.cls-2,.cls-3,.cls-6,.cls-8{font-size:90px;font-family:MyriadPro-Bold, Myriad Pro;font-weight:700;}.cls-2{fill:#00aeef;}.cls-3,.cls-5{fill:#00a651;}.cls-13,.cls-6{fill:#ee2a7b;}.cls-7{letter-spacing:-0.07em;}.cls-15,.cls-8{fill:#231f20;}.cls-9{letter-spacing:-0.06em;}.cls-10{letter-spacing:-0.06em;}.cls-11{letter-spacing:-0.07em;}.cls-12,.cls-17{stroke:#ee2a7b;}.cls-14,.cls-16{stroke:#231f20;}.cls-16{stroke-dasharray:6;}.cls-17{stroke-dasharray:5;}.cls-18{stroke:#00aeef;}</style></defs><title> Desarrollo - Caja Marco Interno - ORIGINAL - BOB</title><line class="cls-1" x1="511.74" y1="345.02" x2="1203.41" y2="345.02"/><line class="cls-1" x1="511.74" y1="1359.84" x2="1203.41" y2="1359.84"/><line class="cls-1" x1="1379.14" y1="525.03" x2="1379.14" y2="1179.83"/><line class="cls-1" x1="336" y1="525.03" x2="336" y2="1179.83"/><line class="cls-1" x1="511.74" y1="520.77" x2="511.74" y2="345.03"/><line class="cls-1" x1="511.74" y1="1359.84" x2="511.74" y2="1184.08"/><line class="cls-1" x1="1203.41" y1="520.77" x2="1203.41" y2="345.03"/><line class="cls-1" x1="1203.41" y1="1359.84" x2="1203.41" y2="1184.08"/><text class="cls-2" transform="translate(851.22 506.09)">B</text><text class="cls-2" transform="translate(425.38 843.22)">H</text><text class="cls-3" transform="translate(596.81 1284.48)">T</text><line class="cls-4" x1="568.45" y1="1211.04" x2="568.45" y2="1335.77"/><polygon class="cls-5" points="553.64 1222.27 568.45 1215.98 583.27 1222.27 568.45 1187.16 553.64 1222.27"/><polygon class="cls-5" points="553.64 1324.54 568.45 1330.83 583.27 1324.54 568.45 1359.65 553.64 1324.54"/><text class="cls-3" transform="translate(598.81 444.53)">T</text><line class="cls-4" x1="568.45" y1="371.08" x2="568.45" y2="495.81"/><polygon class="cls-5" points="553.64 382.31 568.45 376.02 583.27 382.31 568.45 347.2 553.64 382.31"/><polygon class="cls-5" points="553.64 484.58 568.45 490.87 583.27 484.58 568.45 519.69 553.64 484.58"/><text class="cls-3" transform="translate(398.3 1147.46)">T</text><line class="cls-4" x1="359.08" y1="1077.6" x2="483.82" y2="1077.6"/><polygon class="cls-5" points="370.32 1092.41 364.02 1077.6 370.32 1062.79 335.2 1077.6 370.32 1092.41"/><polygon class="cls-5" points="472.58 1092.41 478.87 1077.6 472.58 1062.79 507.69 1077.6 472.58 1092.41"/><text class="cls-3" transform="translate(1268.26 1147.46)">T</text><line class="cls-4" x1="1229.04" y1="1077.6" x2="1353.77" y2="1077.6"/><polygon class="cls-5" points="1240.27 1092.41 1233.98 1077.6 1240.27 1062.79 1205.16 1077.6 1240.27 1092.41"/><polygon class="cls-5" points="1342.54 1092.41 1348.83 1077.6 1342.54 1062.79 1377.65 1077.6 1342.54 1092.41"/><text class="cls-6" transform="translate(861.86 1500.45)">B<tspan class="cls-7" x="54.36" y="0">’</tspan></text><text class="cls-8" transform="translate(831.76 253.16)">B<tspan class="cls-9" x="54.36" y="0">’</tspan><tspan class="cls-7" x="71.91" y="0">’</tspan></text><text class="cls-8" transform="translate(146.92 803.47)">H<tspan class="cls-10" x="62.01" y="0">’</tspan><tspan class="cls-7" x="79.56" y="0">’</tspan></text><text class="cls-6" transform="translate(1470.44 849.26)">H<tspan class="cls-11" x="62.01" y="0">’</tspan></text><line class="cls-12" x1="836.97" y1="1462.04" x2="314.52" y2="1462.04"/><polygon class="cls-13" points="325.75 1447.23 319.46 1462.04 325.75 1476.85 290.64 1462.04 325.75 1447.23"/><line class="cls-12" x1="1400.62" y1="1462.04" x2="956.38" y2="1462.04"/><polygon class="cls-13" points="1389.39 1447.23 1395.68 1462.04 1389.39 1476.85 1424.5 1462.04 1389.39 1447.23"/><line class="cls-14" x1="800.35" y1="228.47" x2="293.26" y2="228.47"/><polygon class="cls-15" points="304.49 213.66 298.2 228.47 304.49 243.28 269.38 228.47 304.49 213.66"/><line class="cls-14" x1="1421.88" y1="228.47" x2="934.03" y2="228.47"/><polygon class="cls-15" points="1410.64 213.66 1416.94 228.47 1410.64 243.28 1445.76 228.47 1410.64 213.66"/><line class="cls-14" x1="235.64" y1="866.8" x2="235.64" y2="1402.57"/><polygon class="cls-15" points="220.83 1391.34 235.64 1397.63 250.45 1391.34 235.64 1426.45 220.83 1391.34"/><line class="cls-14" x1="235.64" y1="302.3" x2="235.64" y2="703.8"/><polygon class="cls-15" points="220.83 313.53 235.64 307.24 250.45 313.53 235.64 278.42 220.83 313.53"/><line class="cls-12" x1="1484.99" y1="872.82" x2="1484.99" y2="1381.31"/><polygon class="cls-13" points="1470.17 1370.08 1484.99 1376.37 1499.8 1370.08 1484.99 1405.19 1470.17 1370.08"/><line class="cls-12" x1="1484.99" y1="323.56" x2="1484.99" y2="765.48"/><polygon class="cls-13" points="1470.17 334.79 1484.99 328.5 1499.8 334.79 1484.99 299.68 1470.17 334.79"/><rect class="cls-14" x="269.38" y="278.42" width="1176.38" height="1148.03"/><line class="cls-16" x1="1445.76" y1="227.55" x2="1445.76" y2="275.58"/><line class="cls-16" x1="269.38" y1="275.58" x2="269.38" y2="227.55"/><line class="cls-16" x1="269.38" y1="278.42" x2="221.35" y2="278.42"/><line class="cls-16" x1="269.38" y1="1426.45" x2="221.35" y2="1426.45"/><line class="cls-17" x1="290.64" y1="1175.53" x2="290.64" y2="1479.98"/><line class="cls-17" x1="1424.5" y1="1175.53" x2="1424.5" y2="1479.98"/><line class="cls-17" x1="1498.72" y1="1405.19" x2="1194.28" y2="1405.19"/><line class="cls-17" x1="1498.72" y1="299.63" x2="1194.28" y2="299.63"/><rect class="cls-18" x="511.74" y="520.77" width="691.67" height="663.31"/><path class="cls-12" d="M1379.18,520.73l5.67,2.84,39.69,4.26V1177l-39.69,4.26-5.67,2.83s1.84-4.25-87.91-4.25-87.92,4.25-87.92,4.25h0l45.33,14.17v161.55h-36.77L1197.22,1374l-2.36,31.13H520.22L517.87,1374l-14.72-14.22H466.48V1198.24l45.23-14.2s.42-4.22-87.88-4.22-87.9,4.25-87.9,4.25l-5.66-2.83L290.6,1177V527.83l39.66-4.26,5.69-2.84s-.82,4.25,87.88,4.25,87.89-4.25,87.89-4.25l-45.36-14.17V345h36.79l14.72-14.13,2.35-31.22h674.64l2.36,31.22L1211.93,345h36.79V506.56l-45.35,14.17s-.35,4.25,87.9,4.25S1379.18,520.73,1379.18,520.73Z"/></svg>