<svg id="suajes" xmlns="http://www.w3.org/2000/svg" viewBox="0 0 1700.79 1700.79"><defs><style>.cls-1{font-size:40px;fill:#9e1f63;}.cls-1,.cls-11,.cls-12,.cls-2,.cls-8{font-family:MyriadPro-Bold, Myriad Pro;font-weight:700;}.cls-11,.cls-12,.cls-2,.cls-8{font-size:90px;}.cls-2,.cls-4,.cls-8{fill:#231f20;}.cls-13,.cls-15,.cls-3,.cls-5,.cls-6,.cls-7{fill:none;stroke-miterlimit:10;}.cls-15,.cls-3,.cls-5{stroke:#231f20;}.cls-3{stroke-width:3px;}.cls-13,.cls-15,.cls-5,.cls-6,.cls-7{stroke-width:4px;}.cls-6{stroke:#00aeef;}.cls-6,.cls-7{stroke-dasharray:12;}.cls-13,.cls-7{stroke:#00a651;}.cls-8{letter-spacing:-0.02em;}.cls-9{letter-spacing:-0.06em;}.cls-10{letter-spacing:-0.07em;}.cls-11{fill:#00aeef;}.cls-12,.cls-14{fill:#00a651;}.cls-15{stroke-dasharray:5;}</style></defs><title> Desarrollo - Caja Marco Interno - ORIGINAL - BOB</title><text class="cls-1" transform="translate(156.86 685.76)">2.2 cm</text><text class="cls-1" transform="translate(156.86 1134.43)">2.2 cm</text><text class="cls-1" transform="translate(173.16 909.3)">2 cm</text><text class="cls-2" transform="translate(774.2 626.19)">l</text><line class="cls-3" x1="835.53" y1="603.37" x2="1480.33" y2="603.37"/><polygon class="cls-4" points="1471.9 614.48 1476.62 603.37 1471.9 592.26 1498.24 603.37 1471.9 614.48"/><line class="cls-3" x1="121.5" y1="603.37" x2="727.03" y2="603.37"/><polygon class="cls-4" points="129.93 614.48 125.21 603.37 129.93 592.26 103.59 603.37 129.93 614.48"/><line class="cls-3" x1="1523.91" y1="934.13" x2="1523.91" y2="1132.01"/><polygon class="cls-4" points="1512.8 1123.58 1523.91 1128.3 1535.02 1123.58 1523.91 1149.92 1512.8 1123.58"/><line class="cls-3" x1="1523.91" y1="657.59" x2="1523.91" y2="816.13"/><polygon class="cls-4" points="1512.8 666.01 1523.91 661.29 1535.02 666.01 1523.91 639.68 1512.8 666.01"/><rect class="cls-5" x="103.59" y="639.67" width="1394.65" height="510.26"/><line class="cls-6" x1="120.6" y1="702.03" x2="900.13" y2="702.03"/><line class="cls-6" x1="900.13" y1="866.44" x2="120.6" y2="866.44"/><line class="cls-6" x1="1481.23" y1="866.44" x2="900.13" y2="866.44"/><line class="cls-6" x1="900.13" y1="702.03" x2="1481.23" y2="702.03"/><line class="cls-7" x1="120.6" y1="866.44" x2="120.6" y2="702.03"/><line class="cls-7" x1="1481.23" y1="702.03" x2="1481.23" y2="866.44"/><line class="cls-7" x1="900.13" y1="702.03" x2="900.13" y2="866.44"/><line class="cls-6" x1="120.6" y1="923.16" x2="900.13" y2="923.16"/><line class="cls-6" x1="900.13" y1="1087.57" x2="120.6" y2="1087.57"/><line class="cls-6" x1="1481.23" y1="1087.57" x2="900.13" y2="1087.57"/><line class="cls-6" x1="900.13" y1="923.16" x2="1481.23" y2="923.16"/><line class="cls-7" x1="900.13" y1="923.16" x2="900.13" y2="1087.57"/><line class="cls-7" x1="120.6" y1="1087.57" x2="120.6" y2="923.16"/><line class="cls-7" x1="1481.23" y1="923.16" x2="1481.23" y2="1087.57"/><text class="cls-8" transform="translate(1574.7 922.95) rotate(-90)">q<tspan class="cls-9" x="51.66" y="0">’</tspan><tspan class="cls-10" x="69.21" y="0">’</tspan></text><text class="cls-11" transform="translate(797.47 757.74)">m</text><text class="cls-11" transform="translate(1393.34 757.74)">n</text><text class="cls-11" transform="translate(797.47 979.74)">m</text><text class="cls-11" transform="translate(1393.34 979.74)">n</text><text class="cls-12" transform="translate(235.29 791.12)">q</text><line class="cls-13" x1="209.05" y1="726.17" x2="209.05" y2="842.4"/><polygon class="cls-14" points="194.24 737.4 209.05 731.11 223.86 737.4 209.05 702.29 194.24 737.4"/><polygon class="cls-14" points="194.24 831.17 209.05 837.46 223.86 831.17 209.05 866.28 194.24 831.17"/><text class="cls-12" transform="translate(235.29 1013.1)">q</text><line class="cls-13" x1="209.05" y1="948.16" x2="209.05" y2="1064.39"/><polygon class="cls-14" points="194.24 959.39 209.05 953.1 223.86 959.39 209.05 924.28 194.24 959.39"/><polygon class="cls-14" points="194.24 1053.16 209.05 1059.45 223.86 1053.16 209.05 1088.27 194.24 1053.16"/><line class="cls-15" x1="1491.19" y1="1149.93" x2="1532.52" y2="1149.93"/><line class="cls-15" x1="1491.19" y1="639.67" x2="1532.52" y2="639.67"/><line class="cls-15" x1="1498.24" y1="636.52" x2="1498.24" y2="595.19"/><line class="cls-15" x1="103.59" y1="636.52" x2="103.59" y2="595.19"/></svg>