<svg id="suajes" xmlns="http://www.w3.org/2000/svg" viewBox="0 0 1700.79 1700.79"><defs><style>.cls-1,.cls-11,.cls-12,.cls-15,.cls-16{font-size:90px;font-family:MyriadPro-Bold, Myriad Pro;font-weight:700;}.cls-1,.cls-16,.cls-4{fill:#00aeef;}.cls-1{letter-spacing:0em;}.cls-2{letter-spacing:-0.07em;}.cls-14,.cls-17,.cls-3,.cls-5,.cls-6,.cls-7,.cls-8,.cls-9{fill:none;stroke-miterlimit:10;}.cls-17,.cls-3,.cls-7{stroke:#00aeef;}.cls-14,.cls-3,.cls-7,.cls-9{stroke-width:3px;}.cls-5,.cls-6{stroke:#00a651;}.cls-17,.cls-5,.cls-6,.cls-8{stroke-width:4px;}.cls-6{stroke-dasharray:12;}.cls-7{stroke-dasharray:6;}.cls-14,.cls-8,.cls-9{stroke:#f15a29;}.cls-10,.cls-11,.cls-15{fill:#f15a29;}.cls-11{letter-spacing:-0.02em;}.cls-12,.cls-13{fill:#00a651;}.cls-14{stroke-dasharray:5;}</style></defs><title> Desarrollo - Caja Marco Interno - ORIGINAL - BOB</title><text class="cls-1" transform="translate(829.67 1129.38)">l<tspan class="cls-2" x="25.11" y="0">’</tspan></text><line class="cls-3" x1="874.52" y1="1101.29" x2="1458.42" y2="1101.29"/><polygon class="cls-4" points="1449.99 1112.4 1454.71 1101.29 1449.99 1090.18 1476.33 1101.29 1449.99 1112.4"/><line class="cls-3" x1="133.78" y1="1101.29" x2="810" y2="1101.29"/><polygon class="cls-4" points="142.21 1112.4 137.49 1101.29 142.21 1090.18 115.87 1101.29 142.21 1112.4"/><line class="cls-5" x1="116.12" y1="799.48" x2="116.12" y2="635.07"/><line class="cls-5" x1="1476.75" y1="635.07" x2="1476.75" y2="799.48"/><line class="cls-6" x1="895.65" y1="635.07" x2="895.65" y2="1020.58"/><line class="cls-7" x1="115.87" y1="1020.58" x2="115.87" y2="1132.89"/><line class="cls-7" x1="1476.75" y1="1020.58" x2="1476.75" y2="1132.89"/><line class="cls-5" x1="117.49" y1="1020.58" x2="117.49" y2="856.17"/><line class="cls-5" x1="1476.75" y1="856.17" x2="1476.75" y2="1020.58"/><rect class="cls-8" x="99.12" y="635.07" width="1394.65" height="385.51"/><line class="cls-9" x1="1528.58" y1="858.32" x2="1528.58" y2="1005.2"/><polygon class="cls-10" points="1517.47 996.78 1528.58 1001.5 1539.69 996.78 1528.58 1023.11 1517.47 996.78"/><line class="cls-9" x1="1528.58" y1="651.36" x2="1528.58" y2="768.21"/><polygon class="cls-10" points="1517.47 659.79 1528.58 655.07 1539.69 659.79 1528.58 633.45 1517.47 659.79"/><text class="cls-11" transform="translate(1579.37 851.23) rotate(-90)">q<tspan class="cls-2" x="51.66" y="0">’</tspan></text><text class="cls-12" transform="translate(214.96 721.43)">q</text><line class="cls-5" x1="188.72" y1="656.49" x2="188.72" y2="772.72"/><polygon class="cls-13" points="173.91 667.72 188.72 661.43 203.53 667.72 188.72 632.61 173.91 667.72"/><polygon class="cls-13" points="173.91 761.48 188.72 767.78 203.53 761.48 188.72 796.6 173.91 761.48"/><text class="cls-12" transform="translate(214.96 943.42)">q</text><line class="cls-5" x1="188.72" y1="878.48" x2="188.72" y2="994.71"/><polygon class="cls-13" points="173.91 889.71 188.72 883.42 203.53 889.71 188.72 854.6 173.91 889.71"/><polygon class="cls-13" points="173.91 983.47 188.72 989.77 203.53 983.47 188.72 1018.59 173.91 983.47"/><line class="cls-14" x1="1495.86" y1="1023.12" x2="1537.19" y2="1023.12"/><line class="cls-14" x1="1495.86" y1="633.44" x2="1537.19" y2="633.44"/><text class="cls-15" transform="translate(769.53 624.23)">l</text><line class="cls-9" x1="830.85" y1="601.41" x2="1475.66" y2="601.41"/><polygon class="cls-10" points="1467.23 612.52 1471.95 601.41 1467.23 590.3 1493.57 601.41 1467.23 612.52"/><line class="cls-9" x1="116.83" y1="601.41" x2="722.36" y2="601.41"/><polygon class="cls-10" points="125.25 612.52 120.54 601.41 125.25 590.3 98.92 601.41 125.25 612.52"/><line class="cls-14" x1="1493.57" y1="634.56" x2="1493.57" y2="593.24"/><line class="cls-14" x1="98.92" y1="634.56" x2="98.92" y2="593.24"/><text class="cls-16" transform="translate(805.64 788.55)">m</text><text class="cls-16" transform="translate(1401.51 788.55)">n</text><text class="cls-16" transform="translate(805.64 914.54)">m</text><text class="cls-16" transform="translate(1401.51 914.54)">n</text><line class="cls-17" x1="895.65" y1="799.48" x2="116.12" y2="799.48"/><line class="cls-17" x1="1476.75" y1="799.48" x2="895.65" y2="799.48"/><line class="cls-17" x1="116.12" y1="856.17" x2="895.65" y2="856.17"/><line class="cls-17" x1="895.65" y1="856.17" x2="1476.75" y2="856.17"/></svg>