<svg id="suajes" xmlns="http://www.w3.org/2000/svg" viewBox="0 0 1700.79 1700.79"><defs><style>.cls-1,.cls-13,.cls-15,.cls-17,.cls-18,.cls-19,.cls-8{fill:none;stroke-miterlimit:10;stroke-width:4px;}.cls-1,.cls-8{stroke:#00a651;}.cls-1,.cls-19{stroke-dasharray:12;}.cls-10,.cls-11,.cls-12,.cls-2,.cls-7{font-size:90px;font-family:MyriadPro-Bold, Myriad Pro;font-weight:700;}.cls-2{fill:#00aeef;letter-spacing:-0.03em;}.cls-3{letter-spacing:-0.06em;}.cls-4{letter-spacing:-0.07em;}.cls-5{letter-spacing:-0.06em;}.cls-6{letter-spacing:-0.07em;}.cls-7,.cls-9{fill:#00a651;}.cls-7{letter-spacing:-0.03em;}.cls-10,.cls-14{fill:#ee2a7b;}.cls-11,.cls-12,.cls-16{fill:#231f20;}.cls-11{letter-spacing:0.06em;}.cls-12{letter-spacing:0.01em;}.cls-13,.cls-18{stroke:#ee2a7b;}.cls-15,.cls-17{stroke:#231f20;}.cls-17{stroke-dasharray:6;}.cls-18{stroke-dasharray:5;}.cls-19{stroke:#00aeef;}</style></defs><title> Desarrollo - Caja Marco Interno - ORIGINAL - BOB</title><line class="cls-1" x1="511.41" y1="345.02" x2="1203.07" y2="345.02"/><line class="cls-1" x1="511.41" y1="1359.84" x2="1203.07" y2="1359.84"/><line class="cls-1" x1="1378.8" y1="525.03" x2="1378.8" y2="1179.83"/><line class="cls-1" x1="335.66" y1="525.03" x2="335.66" y2="1179.83"/><line class="cls-1" x1="511.41" y1="520.77" x2="511.41" y2="345.03"/><line class="cls-1" x1="511.41" y1="1359.84" x2="511.41" y2="1184.08"/><line class="cls-1" x1="1203.07" y1="520.77" x2="1203.07" y2="345.03"/><line class="cls-1" x1="1203.07" y1="1359.84" x2="1203.07" y2="1184.08"/><text class="cls-2" transform="translate(823.12 506.09)">m<tspan class="cls-3" x="75.06" y="0">’</tspan><tspan class="cls-4" x="92.61" y="0">’</tspan></text><text class="cls-2" transform="translate(413.43 843.22)">n<tspan class="cls-5" x="50.4" y="0">’</tspan><tspan class="cls-6" x="67.95" y="0">’</tspan></text><text class="cls-7" transform="translate(586.75 1284.48)">p<tspan class="cls-6" x="51.48" y="0">’</tspan></text><line class="cls-8" x1="568.12" y1="1211.04" x2="568.12" y2="1335.77"/><polygon class="cls-9" points="553.3 1222.27 568.12 1215.98 582.93 1222.27 568.12 1187.16 553.3 1222.27"/><polygon class="cls-9" points="553.3 1324.54 568.12 1330.83 582.93 1324.54 568.12 1359.65 553.3 1324.54"/><text class="cls-7" transform="translate(588.75 444.53)">p<tspan class="cls-6" x="51.48" y="0">’</tspan></text><line class="cls-8" x1="568.12" y1="371.08" x2="568.12" y2="495.81"/><polygon class="cls-9" points="553.3 382.31 568.12 376.02 582.93 382.31 568.12 347.2 553.3 382.31"/><polygon class="cls-9" points="553.3 484.58 568.12 490.87 582.93 484.58 568.12 519.69 553.3 484.58"/><text class="cls-7" transform="translate(388.25 1147.46)">p<tspan class="cls-6" x="51.48" y="0">’</tspan></text><line class="cls-8" x1="358.74" y1="1077.6" x2="483.48" y2="1077.6"/><polygon class="cls-9" points="369.98 1092.41 363.69 1077.6 369.98 1062.79 334.87 1077.6 369.98 1092.41"/><polygon class="cls-9" points="472.24 1092.41 478.54 1077.6 472.24 1062.79 507.36 1077.6 472.24 1092.41"/><text class="cls-7" transform="translate(1258.2 1147.46)">p<tspan class="cls-6" x="51.48" y="0">’</tspan></text><line class="cls-8" x1="1228.7" y1="1077.6" x2="1353.43" y2="1077.6"/><polygon class="cls-9" points="1239.93 1092.41 1233.64 1077.6 1239.93 1062.79 1204.82 1077.6 1239.93 1092.41"/><polygon class="cls-9" points="1342.2 1092.41 1348.49 1077.6 1342.2 1062.79 1377.31 1077.6 1342.2 1092.41"/><text class="cls-10" transform="translate(882 1500.45)">f</text><text class="cls-11" transform="translate(849.2 253.16)">f<tspan class="cls-6" x="36.36" y="0">’</tspan></text><text class="cls-12" transform="translate(206 803.47)">j<tspan class="cls-4" x="26.73" y="0">’</tspan></text><text class="cls-10" transform="translate(1471.9 842.33)">j</text><line class="cls-13" x1="867.27" y1="1462.04" x2="314.18" y2="1462.04"/><polygon class="cls-14" points="325.42 1447.23 319.12 1462.04 325.42 1476.85 290.3 1462.04 325.42 1447.23"/><line class="cls-13" x1="1400.28" y1="1462.04" x2="925.17" y2="1462.04"/><polygon class="cls-14" points="1389.05 1447.23 1395.34 1462.04 1389.05 1476.85 1424.16 1462.04 1389.05 1447.23"/><line class="cls-15" x1="800.01" y1="228.47" x2="292.92" y2="228.47"/><polygon class="cls-16" points="304.16 213.66 297.86 228.47 304.16 243.28 269.04 228.47 304.16 213.66"/><line class="cls-15" x1="1421.54" y1="228.47" x2="933.69" y2="228.47"/><polygon class="cls-16" points="1410.31 213.66 1416.6 228.47 1410.31 243.28 1445.42 228.47 1410.31 213.66"/><line class="cls-15" x1="235.3" y1="866.8" x2="235.3" y2="1402.57"/><polygon class="cls-16" points="220.49 1391.34 235.3 1397.63 250.12 1391.34 235.3 1426.45 220.49 1391.34"/><line class="cls-15" x1="235.3" y1="302.3" x2="235.3" y2="703.8"/><polygon class="cls-16" points="220.49 313.53 235.3 307.24 250.12 313.53 235.3 278.42 220.49 313.53"/><line class="cls-13" x1="1484.65" y1="872.82" x2="1484.65" y2="1381.31"/><polygon class="cls-14" points="1469.84 1370.08 1484.65 1376.37 1499.46 1370.08 1484.65 1405.19 1469.84 1370.08"/><line class="cls-13" x1="1484.65" y1="323.56" x2="1484.65" y2="765.48"/><polygon class="cls-14" points="1469.84 334.79 1484.65 328.5 1499.46 334.79 1484.65 299.68 1469.84 334.79"/><rect class="cls-15" x="269.04" y="278.42" width="1176.38" height="1148.03"/><line class="cls-17" x1="1445.42" y1="227.55" x2="1445.42" y2="275.58"/><line class="cls-17" x1="269.04" y1="275.58" x2="269.04" y2="227.55"/><line class="cls-17" x1="269.04" y1="278.42" x2="221.01" y2="278.42"/><line class="cls-17" x1="269.04" y1="1426.45" x2="221.01" y2="1426.45"/><line class="cls-18" x1="290.31" y1="1175.53" x2="290.31" y2="1479.98"/><line class="cls-18" x1="1424.16" y1="1175.53" x2="1424.16" y2="1479.98"/><line class="cls-18" x1="1498.38" y1="1405.19" x2="1193.94" y2="1405.19"/><line class="cls-18" x1="1498.38" y1="299.63" x2="1193.94" y2="299.63"/><rect class="cls-19" x="511.41" y="520.77" width="691.67" height="663.31"/><path class="cls-13" d="M1378.84,520.73l5.67,2.84,39.69,4.26V1177l-39.69,4.26-5.67,2.83s1.84-4.25-87.9-4.25-87.93,4.25-87.93,4.25h0l45.33,14.17v161.55h-36.77L1196.88,1374l-2.36,31.13H519.88L517.54,1374l-14.73-14.22H466.14V1198.24l45.24-14.2s.41-4.22-87.89-4.22-87.89,4.25-87.89,4.25l-5.67-2.83L290.26,1177V527.83l39.67-4.26,5.68-2.84s-.82,4.25,87.88,4.25,87.89-4.25,87.89-4.25L466,506.56V345h36.79l14.73-14.13,2.34-31.22h674.64l2.36,31.22L1211.59,345h36.79V506.56L1203,520.73s-.35,4.25,87.91,4.25S1378.84,520.73,1378.84,520.73Z"/></svg>